<svg width="44" height= fill="none" xmlns="http://www.w3.org/2000/svg"><path d="M44 22c0 6.08-2.46 11.58-6.44 15.56A21.93 21.93 0 0122 44a21.93 21.93 0 01-15.56-6.44A21.93 21.93 0 010 22c0-6.08 2.46-11.58 6.44-15.56A21.93 21.93 0 0122 0c6.08 0 11.58 2.46 15.56 6.44A21.93 21.93 0 0144 22z" fill="#AFB1B8"/><g clip-path="url(#clip0)"><path d="M25.33 15.32h1.83v-3.18c-.32-.04-1.4-.14-2.66-.14-2.64 0-4.44 1.66-4.44 4.7v2.8h-2.9v3.55h2."44"9V32h3.56v-8.94h2.79l.44-3.56h-3.23v-2.45c0-1.03.28-1.73 1.71-1.73z" fill="#fff"/></g><defs><clipPath id="clip0"><path fill="#fff" d="M12 12h20v20H12z"/></clipPath></defs></svg>