<svg fill="none" xmlns="http://www.w3.org/2000/svg" viewBox="0 0 44 44"><path d="M44 22c0 6.08-2.46 11.58-6.44 15.56A21.93 21.93 0 0122 44a21.93 21.93 0 01-15.56-6.44A21.93 21.93 0 010 22c0-6.08 2.46-11.58 6.44-15.56A21.93 21.93 0 0122 0c6.08 0 11.58 2.46 15.56 6.44A21.93 21.93 0 0144 22z" fill="#AFB1B8"/><g clip-path="url(#clip0)" fill="#fff"><path d="M32 32v-7.34c0-3.58-.77-6.35-4.97-6.35a4.35 4.35 0 00-3.92 2.16h-.06v-1.82h-3.98V32h4.15v-6.61c0-1.74.33-3.43 2.48-3.43 2.13 0 2.16 1.99 2.16 3.54V32H32zM12.33 18.65h4.15V32h-4.15V18.65zM14.4 12a2.4 2.4 0 00-2.4 2.4 2.42 2.42 0 002.4 2.43c1.33 0 2.4-1.1 2.4-2.43a2.4 2.4 0 00-2.4-2.4z"/></g><defs><clipPath id="clip0"><path fill="#fff" d="M12 12h20v20H12z"/></clipPath></defs></svg>