<svg aria-hidden="true" style="position: absolute; width: 0; height: 0; overflow: hidden;" version="1.1" xmlns="http://www.w3.org/2000/svg" xmlns:xlink="http://www.w3.org/1999/xlink">
<defs>
<symbol id="icon-closemodal" viewBox="0 0 43 43">
<path fill="#fff" style="fill: var(--color1, #fff)" d="M39.417 20.306c0 9.895-8.022 17.917-17.917 17.917s-17.917-8.022-17.917-17.917c0-9.895 8.022-17.917 17.917-17.917s17.917 8.022 17.917 17.917z"></path>
<path fill="#000" style="fill: var(--color2, #000)" d="M28.667 15.657l-1.323-1.323-5.246 5.246-5.246-5.246-1.323 1.323 5.246 5.246-5.246 5.246 1.323 1.323 5.246-5.246 5.246 5.246 1.323-1.323-5.246-5.246 5.246-5.246z"></path>
</symbol>
<symbol id="icon-emailblack" viewBox="0 0 43 43">
<path d="M35.833 7.167h-28.667c-1.971 0-3.565 1.613-3.565 3.583l-0.018 21.5c0 1.971 1.613 3.583 3.583 3.583h28.667c1.971 0 3.583-1.612 3.583-3.583v-21.5c0-1.971-1.613-3.583-3.583-3.583zM35.117 14.781l-12.667 7.919c-0.573 0.358-1.326 0.358-1.899 0l-12.667-7.919c-0.448-0.287-0.717-0.77-0.717-1.29 0-1.2 1.308-1.917 2.329-1.29l12.004 7.507 12.004-7.507c1.021-0.627 2.329 0.090 2.329 1.29 0 0.52-0.269 1.003-0.717 1.29z"></path>
</symbol>
<symbol id="icon-iconsend" viewBox="0 0 43 43">
<path fill="#fff" style="fill: var(--color1, #fff)" d="M43 0l-43 24.188 13.742 5.090 21.196-19.871-16.122 21.75 0.013 0.005-0.016-0.005v11.844l7.706-8.991 9.762 3.616 6.719-37.625z"></path>
</symbol>
<symbol id="icon-personblack" viewBox="0 0 43 43">
<path d="M21.5 21.5c3.96 0 7.167-3.207 7.167-7.167s-3.207-7.167-7.167-7.167c-3.96 0-7.167 3.207-7.167 7.167s3.207 7.167 7.167 7.167zM21.5 25.083c-4.784 0-14.333 2.401-14.333 7.167v1.792c0 0.985 0.806 1.792 1.792 1.792h25.083c0.985 0 1.792-0.806 1.792-1.792v-1.792c0-4.766-9.55-7.167-14.333-7.167z"></path>
</symbol>
<symbol id="icon-phoneblack" viewBox="0 0 43 43">
<path d="M33.435 26.571l-4.391-0.501c-1.055-0.121-2.092 0.242-2.835 0.985l-3.181 3.181c-4.892-2.489-8.903-6.483-11.393-11.393l3.198-3.198c0.743-0.743 1.106-1.781 0.985-2.835l-0.501-4.357c-0.207-1.746-1.677-3.060-3.44-3.060h-2.991c-1.954 0-3.579 1.625-3.458 3.579 0.916 14.764 12.724 26.554 27.47 27.47 1.953 0.121 3.579-1.504 3.579-3.457v-2.991c0.017-1.746-1.297-3.215-3.043-3.423z"></path>
</symbol>
</defs>
</svg>
